<?xml version="1.0" standalone="no"?>
<!DOCTYPE svg PUBLIC "-//W3C//DTD SVG 20010904//EN"
 "http://www.w3.org/TR/2001/REC-SVG-20010904/DTD/svg10.dtd">
<svg version="1.0" xmlns="http://www.w3.org/2000/svg"
 width="501.000000pt" height="501.000000pt" viewBox="0 0 501.000000 501.000000"
 preserveAspectRatio="xMidYMid meet">
<metadata>
Created by potrace 1.11, written by Peter Selinger 2001-2013
</metadata>
<g transform="translate(0.000000,501.000000) scale(0.100000,-0.100000)"
fill="#000000" stroke="none">
<path d="M2333 4653 l-53 -4 0 -292 c0 -284 1 -294 23 -337 61 -122 207 -154
310 -69 55 45 77 104 77 205 l0 87 33 -6 c365 -64 666 -213 918 -455 53 -51
117 -118 140 -150 24 -31 47 -59 50 -62 16 -14 107 -165 141 -235 22 -44 44
-88 50 -99 18 -33 76 -219 100 -316 20 -86 22 -119 22 -340 0 -219 -2 -255
-22 -340 -91 -380 -267 -682 -537 -916 -80 -69 -166 -133 -222 -165 -160 -92
-247 -133 -353 -164 -30 -9 -64 -21 -75 -25 -11 -5 -29 -10 -40 -12 -19 -3
-20 -12 -23 -206 -2 -173 0 -203 13 -208 40 -16 374 96 545 182 174 87 415
268 561 420 283 296 489 718 549 1129 29 199 21 529 -16 695 -8 36 -19 85 -25
110 -29 132 -93 299 -176 463 -116 228 -298 455 -499 623 -108 90 -106 89
-215 159 -372 242 -829 359 -1276 328z"/>
<path d="M1985 4600 c-3 -5 -21 -10 -38 -10 -18 0 -41 -7 -51 -15 -11 -8 -30
-15 -42 -15 -13 0 -26 -4 -29 -10 -3 -5 -16 -10 -28 -10 -13 0 -31 -6 -42 -13
-11 -7 -38 -19 -60 -26 -47 -16 -208 -91 -215 -101 -3 -3 -12 -9 -20 -13 -8
-4 -24 -13 -35 -19 -10 -7 -55 -36 -100 -64 -44 -28 -90 -60 -102 -70 -12 -10
-37 -30 -55 -43 -57 -43 -282 -273 -328 -338 -77 -104 -123 -175 -165 -248
-40 -69 -64 -122 -146 -310 -4 -11 -18 -56 -30 -100 -11 -44 -25 -89 -29 -100
-5 -11 -14 -51 -20 -90 -6 -38 -18 -105 -26 -148 -22 -120 -19 -444 6 -582 28
-162 39 -216 51 -255 6 -19 15 -51 21 -70 45 -153 199 -473 255 -528 7 -7 18
-23 25 -35 25 -47 109 -149 212 -256 83 -87 300 -271 320 -271 7 0 19 -6 25
-14 7 -8 26 -21 44 -30 18 -9 41 -22 51 -29 115 -72 245 -134 351 -167 22 -7
49 -17 60 -21 36 -16 178 -50 285 -69 129 -23 356 -35 473 -25 l87 7 0 289 c0
270 -1 292 -20 333 -28 57 -65 91 -124 111 -52 17 -110 13 -151 -9 -36 -20
-95 -80 -95 -96 0 -9 -5 -21 -11 -27 -5 -5 -11 -49 -12 -96 -2 -47 -5 -88 -8
-91 -15 -16 -311 57 -409 101 -239 107 -371 192 -530 347 -218 210 -357 435
-450 726 -16 53 -22 80 -55 271 -27 156 -18 358 26 569 14 67 88 291 100 305
5 5 9 14 9 20 0 14 98 198 110 205 4 3 20 25 35 50 39 63 124 166 196 239 60
61 138 131 146 131 5 0 20 11 35 25 15 14 30 25 33 25 3 0 13 6 21 13 44 37
72 55 97 63 9 4 17 9 17 13 0 3 15 12 33 20 17 7 61 27 97 43 62 29 79 36 133
57 12 4 39 16 60 25 21 9 50 16 66 16 16 0 34 6 40 14 8 9 12 80 14 210 l2
196 -52 0 c-28 0 -55 -4 -58 -10z"/>
<path d="M2408 3679 c-45 -10 -112 -51 -144 -87 -48 -55 -68 -112 -68 -197 -1
-70 3 -87 28 -132 49 -90 110 -133 209 -152 145 -27 282 56 327 198 25 79 25
93 0 175 -46 148 -197 232 -352 195z"/>
<path d="M2448 2050 c-125 -16 -220 -99 -248 -219 -32 -135 39 -284 160 -337
64 -27 199 -26 255 3 92 49 158 151 159 248 1 126 -52 219 -160 276 -61 33
-93 39 -166 29z"/>
</g>
</svg>
