<?xml version="1.0" standalone="no"?>
<!DOCTYPE svg PUBLIC "-//W3C//DTD SVG 20010904//EN"
 "http://www.w3.org/TR/2001/REC-SVG-20010904/DTD/svg10.dtd">
<svg version="1.0" xmlns="http://www.w3.org/2000/svg"
 width="501.000000pt" height="501.000000pt" viewBox="0 0 501.000000 501.000000"
 preserveAspectRatio="xMidYMid meet">
<metadata>
Created by potrace 1.11, written by Peter Selinger 2001-2013
</metadata>
<g transform="translate(0.000000,501.000000) scale(0.100000,-0.100000)"
fill="#000000" stroke="none">
<path d="M2317 4641 l-28 -6 1 -289 c1 -320 2 -330 66 -386 87 -76 220 -58
289 39 27 39 30 52 35 144 l5 102 35 -3 c211 -19 500 -133 724 -285 129 -87
342 -302 429 -434 283 -426 361 -928 222 -1424 -101 -358 -377 -728 -695 -931
-126 -81 -299 -160 -440 -203 l-75 -22 -3 -188 c-1 -104 2 -193 7 -198 12 -12
211 41 331 88 128 50 286 132 395 203 388 255 689 645 830 1077 213 652 98
1353 -310 1900 -72 97 -244 276 -341 355 -298 245 -659 401 -1044 451 -141 18
-373 24 -433 10z"/>
<path d="M1995 4594 c-104 -30 -220 -68 -230 -76 -5 -4 -19 -8 -32 -8 -13 0
-23 -4 -23 -9 0 -5 -12 -12 -26 -15 -22 -6 -174 -79 -244 -117 -34 -19 -140
-92 -229 -157 -71 -53 -241 -215 -311 -297 -181 -213 -345 -531 -418 -810 -6
-22 -16 -60 -22 -84 -37 -139 -54 -538 -30 -704 38 -258 98 -458 197 -652 26
-49 53 -105 62 -122 8 -18 19 -33 23 -33 4 0 8 -4 8 -9 0 -11 74 -121 139
-206 44 -58 239 -259 291 -300 205 -163 341 -244 566 -338 256 -108 609 -165
878 -142 l86 7 0 276 c0 153 -5 293 -10 312 -15 56 -82 117 -142 129 -90 20
-167 -14 -215 -96 -22 -39 -27 -59 -29 -136 -2 -49 -5 -92 -8 -94 -5 -6 -115
12 -176 28 -129 33 -228 68 -323 115 -27 13 -53 24 -58 24 -6 0 -15 5 -22 10
-7 6 -50 33 -96 61 -199 119 -412 325 -521 504 -13 22 -27 42 -31 45 -13 9
-136 274 -154 330 -10 30 -21 63 -26 72 -5 10 -9 28 -9 42 0 13 -6 41 -14 62
-36 104 -46 487 -18 664 28 172 118 413 216 575 106 177 290 378 448 489 51
36 98 70 105 76 7 5 15 10 18 10 3 0 24 12 48 27 62 39 312 142 345 143 8 0
28 7 46 15 l32 15 -2 193 c-2 218 3 207 -89 181z"/>
<path d="M2410 3671 c-123 -40 -198 -132 -207 -256 -7 -81 22 -157 82 -217
139 -141 362 -101 456 82 18 34 23 61 23 115 0 157 -109 273 -264 281 -36 2
-76 0 -90 -5z"/>
<path d="M2400 2030 c-30 -11 -56 -20 -57 -20 -13 0 -99 -92 -116 -125 -31
-58 -31 -183 0 -245 56 -114 151 -167 280 -157 42 3 80 10 86 16 6 6 18 11 26
11 28 0 108 96 131 157 50 132 -12 282 -144 346 -77 38 -137 43 -206 17z"/>
</g>
</svg>
